<svg width="64" height="64" viewBox="0 0 64 64" fill="none" xmlns="http://www.w3.org/2000/svg">
  <circle cx="32" cy="32" r="32" fill="#26A17B"/>
  <path d="M37 29.6V29.4C36.8 29.4 34.8 29.2 32 29.2C29.2 29.2 27.2 29.4 27 29.4V29.6C21.7 29.9 18 30.8 18 31.9C18 33 21.7 33.9 27 34.2V43.2C29 43.4 31.5 43.5 32 43.5C32.5 43.5 35 43.4 37 43.2V34.2C42.3 33.9 46 33 46 31.9C46 30.8 42.3 29.9 37 29.6ZM37 33.3V33.4C36.9 33.4 34.9 33.6 32.1 33.6C29.3 33.6 27.1 33.4 27.1 33.4V33.3C22.8 33.1 19.6 32.4 19.6 31.6C19.6 30.8 22.8 30.1 27.1 29.9V32.5C27.3 32.5 29.4 32.7 32.1 32.7C34.8 32.7 36.8 32.5 37 32.5V29.9C41.3 30.1 44.5 30.8 44.5 31.6C44.5 32.4 41.3 33.1 37 33.3Z" fill="white"/>
  <path d="M37 27.8V24H45V19H19V24H27V27.8C20.5 28.1 16 29.3 16 30.7C16 32.1 20.5 33.3 27 33.6V45C28.5 45.2 30.2 45.3 32 45.3C33.8 45.3 35.5 45.2 37 45V33.6C43.5 33.3 48 32.1 48 30.7C48 29.3 43.5 28.1 37 27.8Z" fill="white"/>
</svg>
