<svg width="64" height="64" viewBox="0 0 64 64" fill="none" xmlns="http://www.w3.org/2000/svg">
  <rect width="64" height="64" rx="32" fill="#2775CA"/>
  <path d="M32 12C20.954 12 12 20.954 12 32C12 43.046 20.954 52 32 52C43.046 52 52 43.046 52 32C52 20.954 43.046 12 32 12ZM32 48.8C22.7216 48.8 15.2 41.2784 15.2 32C15.2 22.7216 22.7216 15.2 32 15.2C41.2784 15.2 48.8 22.7216 48.8 32C48.8 41.2784 41.2784 48.8 32 48.8Z" fill="white"/>
  <path d="M34.55 36.1C34.55 34.75 33.75 34.3 32.15 34.1C30.95 33.95 30.7 33.65 30.7 33.1C30.7 32.55 31.1 32.2 31.95 32.2C32.7 32.2 33.1 32.45 33.3 33.05C33.35 33.2 33.5 33.3 33.65 33.3H35.2C35.4 33.3 35.55 33.15 35.5 32.95C35.2 31.55 34.1 30.95 32.95 30.8V29.7C32.95 29.5 32.8 29.35 32.6 29.35H31.55C31.35 29.35 31.2 29.5 31.2 29.7V30.75C29.75 30.95 28.85 31.9 28.85 33.2C28.85 34.65 29.75 35.15 31.25 35.35C32.35 35.5 32.7 35.75 32.7 36.35C32.7 36.95 32.2 37.35 31.45 37.35C30.45 37.35 30.1 36.95 29.95 36.4C29.9 36.25 29.75 36.15 29.6 36.15H27.95C27.75 36.15 27.6 36.3 27.65 36.5C27.95 37.9 28.95 38.6 31.2 38.85V39.95C31.2 40.15 31.35 40.3 31.55 40.3H32.6C32.8 40.3 32.95 40.15 32.95 39.95V38.85C34.4 38.65 34.55 37.35 34.55 36.1Z" fill="white"/>
  <path d="M24.2 20.95C24.35 20.85 24.4 20.65 24.3 20.5L23.5 19.15C23.4 19 23.2 18.95 23.05 19.05C19.8 21.25 17.65 24.95 17.5 29.1C17.5 29.3 17.65 29.45 17.85 29.45H19.45C19.65 29.45 19.8 29.3 19.8 29.1C19.95 25.75 21.7 22.75 24.2 20.95Z" fill="white"/>
  <path d="M40.95 44.95C40.8 45.05 40.75 45.25 40.85 45.4L41.65 46.75C41.75 46.9 41.95 46.95 42.1 46.85C45.35 44.65 47.5 40.95 47.65 36.8C47.65 36.6 47.5 36.45 47.3 36.45H45.7C45.5 36.45 45.35 36.6 45.35 36.8C45.2 40.15 43.45 43.15 40.95 44.95Z" fill="white"/>
</svg>
