<svg xmlns="http://www.w3.org/2000/svg" viewBox="0 0 2000 2000" width="200" height="200">
  <circle cx="1000" cy="1000" r="1000" fill="#2775CA"/>
  <path d="M1275 1158.33c0-145.83-87.5-195.83-262.5-216.66-125-16.67-150-50-150-108.34s41.67-95.83 125-95.83c75 0 116.67 25 137.5 87.5 4.17 12.5 16.67 20.83 29.17 20.83h66.67c16.67 0 29.17-12.5 29.17-29.17v-4.17c-16.67-91.67-91.67-162.5-191.67-175V537.5c0-16.67-12.5-29.17-33.33-33.33h-62.5c-16.67 0-29.17 12.5-33.33 33.33v95.83c-125 16.67-204.17 100-204.17 204.17 0 137.5 83.33 191.67 258.33 212.5 116.67 20.83 154.17 45.83 154.17 112.5s-58.33 112.5-137.5 112.5c-108.33 0-145.83-45.83-158.33-108.33-4.17-16.67-16.67-25-29.17-25h-70.83c-16.67 0-29.17 12.5-29.17 29.17v4.17c20.83 100 83.33 175 216.67 200v100c0 16.67 12.5 29.17 33.33 33.33h62.5c16.67 0 29.17-12.5 33.33-33.33v-100c125-20.83 208.33-108.33 208.33-216.67z" fill="#fff"/>
  <path d="M787.5 1595.83c-325-116.67-491.67-479.17-370.83-800 62.5-166.67 191.67-295.83 370.83-358.33 16.67-8.33 25-20.83 25-41.67v-58.33c0-16.67-8.33-29.17-25-33.33-4.17 0-12.5 0-16.67 4.17-395.83 125-612.5 545.83-487.5 941.67 75 233.33 254.17 412.5 487.5 487.5 16.67 8.33 33.33 0 37.5-16.67 4.17-4.17 4.17-8.33 4.17-16.67v-58.33c0-12.5-12.5-29.17-25-50zM1229.17 308.33c-16.67-8.33-33.33 0-37.5 16.67-4.17 4.17-4.17 8.33-4.17 16.67v58.33c0 16.67 12.5 33.33 25 41.67 325 116.67 491.67 479.17 370.83 800-62.5 166.67-191.67 295.83-370.83 358.33-16.67 8.33-25 20.83-25 41.67v58.33c0 16.67 8.33 29.17 25 33.33 4.17 0 12.5 0 16.67-4.17 395.83-125 612.5-545.83 487.5-941.67-75-237.5-258.33-416.67-487.5-479.17z" fill="#fff"/>
</svg>
