<svg xmlns="http://www.w3.org/2000/svg" viewBox="0 0 339.43 295.27" width="200" height="200">
  <path d="M62.15 1.45l-61.89 130a2.52 2.52 0 0 0 .54 2.94l167.15 160.17a2.55 2.55 0 0 0 3.53 0L338.63 134.4a2.52 2.52 0 0 0 .54-2.94l-61.89-130A2.5 2.5 0 0 0 275.05 0H64.38a2.5 2.5 0 0 0-2.23 1.45z" fill="#50AF95"/>
  <path d="M191.19 144.8c-1.2.09-7.4.46-21.23.46-11 0-18.81-.33-21.55-.46-42.51-1.87-74.24-9.27-74.24-18.13s31.73-16.25 74.24-18.15v28.91c2.78.2 10.74.67 21.74.67 13.2 0 19.81-.55 21-.67v-28.88c42.42 1.89 74.08 9.29 74.08 18.13s-31.65 16.24-74.08 18.12zm0-39.25V79.68h59.2V40.23H89.21v39.45h59.2v25.86c-48.11 2.21-84.29 11.74-84.29 23.16s36.18 20.94 84.29 23.16v82.9h42.36v-82.93c48-2.21 84.12-11.73 84.12-23.14s-36.09-20.93-84.12-23.14z" fill="#fff"/>
</svg>
